<svg width="22" height="18" viewBox="0 0 22 18" fill="none" xmlns="http://www.w3.org/2000/svg">
<path d="M1.1638 16.7118H1.16374C1.16322 16.745 1.16987 16.7791 1.18469 16.8127C1.19958 16.8464 1.22306 16.8802 1.25621 16.9108M1.1638 16.7118L1.25621 16.9108M1.1638 16.7118V16.7044V15.9297V8.95687C1.1638 8.40376 1.67025 7.88171 2.39184 7.88171C3.11343 7.88171 3.61988 8.40376 3.61988 8.95687V12.0559V12.5302H4.09423H17.7134H18.1877V12.0559V8.95687C18.1877 8.40376 18.6942 7.88171 19.4158 7.88171C20.1374 7.88171 20.6438 8.40376 20.6438 8.95687V13.6054V16.7044H20.6437L20.6439 16.7118C20.6444 16.745 20.6377 16.7791 20.6229 16.8127C20.608 16.8464 20.5845 16.8802 20.5514 16.9108C20.5181 16.9415 20.4761 16.9681 20.4267 16.9869C20.3773 17.0057 20.3228 17.0158 20.267 17.0158C20.2111 17.0158 20.1567 17.0057 20.1072 16.9869C20.0578 16.968 20.0158 16.9415 19.9825 16.9108C19.9494 16.8802 19.9259 16.8464 19.911 16.8127C19.8962 16.7791 19.8895 16.745 19.8901 16.7118H19.8901V16.7044V15.9297V15.4553H19.4158H2.39184H1.91749V15.9297V16.7044H1.91743L1.91755 16.7118C1.91806 16.745 1.91141 16.7791 1.89659 16.8127C1.8817 16.8464 1.85823 16.8802 1.82508 16.9108C1.79183 16.9415 1.7498 16.968 1.70039 16.9869C1.65095 17.0057 1.59653 17.0158 1.54064 17.0158C1.48476 17.0158 1.43034 17.0057 1.3809 16.9869C1.33148 16.968 1.28946 16.9415 1.25621 16.9108M1.1638 16.7118L0.934455 17.2594L1.25621 16.9108M2.86619 3.53359C2.86619 2.12515 4.13532 0.90892 5.79662 0.90892H16.011C17.6723 0.90892 18.9414 2.12515 18.9414 3.53359V5.41024C17.0552 5.62407 15.5366 7.09616 15.5366 8.95687V10.032H6.27097V8.95687C6.27097 7.09616 4.75239 5.62407 2.86619 5.41024V3.53359Z" fill="#181818" stroke="#D22424" stroke-width="0.948699"/>
</svg>
