<svg width="26" height="23" viewBox="0 0 26 23" fill="none" xmlns="http://www.w3.org/2000/svg">
<path d="M4 9.18292e-05C3.86749 -0.00162897 3.73593 0.0208504 3.61296 0.0662233C3.48999 0.111596 3.37807 0.178958 3.2837 0.264393C3.18933 0.349829 3.11439 0.451635 3.06324 0.563895C3.0121 0.676154 2.98576 0.796628 2.98576 0.918316C2.98576 1.04 3.0121 1.16048 3.06324 1.27274C3.11439 1.385 3.18933 1.4868 3.2837 1.57224C3.37807 1.65767 3.48999 1.72504 3.61296 1.77041C3.73593 1.81578 3.86749 1.83826 4 1.83654H22C22.1325 1.83826 22.2641 1.81578 22.387 1.77041C22.51 1.72504 22.6219 1.65767 22.7163 1.57224C22.8107 1.4868 22.8856 1.385 22.9368 1.27274C22.9879 1.16048 23.0142 1.04 23.0142 0.918316C23.0142 0.796628 22.9879 0.676154 22.9368 0.563895C22.8856 0.451635 22.8107 0.349829 22.7163 0.264393C22.6219 0.178958 22.51 0.111596 22.387 0.0662233C22.2641 0.0208504 22.1325 -0.00162897 22 9.18292e-05H4ZM2 3.67299C1.86749 3.67127 1.73593 3.69375 1.61296 3.73912C1.48999 3.78449 1.37807 3.85186 1.2837 3.93729C1.18933 4.02273 1.11439 4.12453 1.06324 4.23679C1.0121 4.34905 0.985758 4.46953 0.985758 4.59121C0.985758 4.7129 1.0121 4.83338 1.06324 4.94564C1.11439 5.0579 1.18933 5.1597 1.2837 5.24514C1.37807 5.33057 1.48999 5.39793 1.61296 5.44331C1.73593 5.48868 1.86749 5.51116 2 5.50944H24C24.1325 5.51116 24.2641 5.48868 24.387 5.44331C24.51 5.39793 24.6219 5.33057 24.7163 5.24514C24.8107 5.1597 24.8856 5.0579 24.9368 4.94564C24.9879 4.83338 25.0142 4.7129 25.0142 4.59121C25.0142 4.46953 24.9879 4.34905 24.9368 4.23679C24.8856 4.12453 24.8107 4.02273 24.7163 3.93729C24.6219 3.85186 24.51 3.78449 24.387 3.73912C24.2641 3.69375 24.1325 3.67127 24 3.67299H2ZM2 7.34589C1.54262 7.34646 1.09928 7.49096 0.74387 7.7553C0.38846 8.01964 0.142459 8.38785 0.046875 8.79855C0.0445769 8.80822 0.0411905 8.81752 0.0390625 8.82724C0.0135168 8.94416 0.000434192 9.06309 0 9.18233V20.201C0.000620508 20.621 0.157988 21.0281 0.44587 21.3544C0.733752 21.6808 1.13475 21.9067 1.58203 21.9944C1.59257 21.9965 1.60269 21.9997 1.61328 22.0016C1.74061 22.0251 1.87013 22.0371 2 22.0375H24C24.4574 22.0369 24.9007 21.8924 25.2561 21.6281C25.6115 21.3637 25.8575 20.9955 25.9531 20.5848C25.9554 20.5751 25.9588 20.5658 25.9609 20.5561C25.9865 20.4392 25.9996 20.3203 26 20.201V9.18233C25.9994 8.76236 25.842 8.35527 25.5541 8.02893C25.2662 7.70258 24.8652 7.4767 24.418 7.38893C24.4074 7.38682 24.3973 7.38371 24.3867 7.38175C24.2594 7.3583 24.1299 7.34629 24 7.34589H2ZM4 9.18233H22C22 9.66939 22.2107 10.1365 22.5858 10.4809C22.9609 10.8253 23.4696 11.0188 24 11.0188V18.3646C23.4696 18.3646 22.9609 18.5581 22.5858 18.9025C22.2107 19.2469 22 19.714 22 20.201H4C4 19.714 3.78929 19.2469 3.41421 18.9025C3.03914 18.5581 2.53043 18.3646 2 18.3646V11.0188C2.53043 11.0188 3.03914 10.8253 3.41421 10.4809C3.78929 10.1365 4 9.66939 4 9.18233Z" fill="white"/>
<path d="M9 15.1508C9 12.869 10.791 11.0188 13 11.0188C15.209 11.0188 17 12.869 17 15.1508C17 16.4565 16.4023 17.6071 15.4863 18.3646H10.5137C9.59767 17.6071 9 16.4565 9 15.1508Z" fill="#D22424"/>
<path d="M4.29289 14.0424C4.48043 13.8702 4.73478 13.7735 5 13.7735C5.26522 13.7735 5.51957 13.8702 5.70711 14.0424C5.89464 14.2146 6 14.4482 6 14.6917C6 14.9352 5.89464 15.1688 5.70711 15.341C5.51957 15.5132 5.26522 15.6099 5 15.6099C4.73478 15.6099 4.48043 15.5132 4.29289 15.341C4.10536 15.1688 4 14.9352 4 14.6917C4 14.4482 4.10536 14.2146 4.29289 14.0424Z" fill="#D22424"/>
<path d="M20.2929 14.0424C20.4804 13.8702 20.7348 13.7735 21 13.7735C21.2652 13.7735 21.5196 13.8702 21.7071 14.0424C21.8946 14.2146 22 14.4482 22 14.6917C22 14.9352 21.8946 15.1688 21.7071 15.341C21.5196 15.5132 21.2652 15.6099 21 15.6099C20.7348 15.6099 20.4804 15.5132 20.2929 15.341C20.1054 15.1688 20 14.9352 20 14.6917C20 14.4482 20.1054 14.2146 20.2929 14.0424Z" fill="#D22424"/>
</svg>
