<svg width="16" height="13" viewBox="0 0 16 13" fill="none" xmlns="http://www.w3.org/2000/svg">
<path d="M4.00003 0C2.52738 0 1.33339 1.05763 1.33339 2.36211V4.13369C2.80604 4.13369 4.00003 5.19132 4.00003 6.4958V7.67685H12V6.4958C12 5.19132 13.194 4.13369 14.6666 4.13369V2.36211C14.6666 1.05763 13.4726 0 12 0H4.00003ZM1.33339 5.31474C0.596728 5.31474 6.6671e-05 5.84326 6.6671e-05 6.4958V11.8105V12.4011C-0.00118268 12.4793 0.0151381 12.557 0.0480803 12.6296C0.0810225 12.7022 0.129929 12.7683 0.191958 12.8241C0.253987 12.8798 0.327902 12.924 0.409406 12.9542C0.49091 12.9844 0.578378 13 0.666728 13C0.755077 13 0.842545 12.9844 0.92405 12.9542C1.00555 12.924 1.07947 12.8798 1.1415 12.8241C1.20353 12.7683 1.25243 12.7022 1.28538 12.6296C1.31832 12.557 1.33464 12.4793 1.33339 12.4011V11.8105H14.6666V12.4011C14.6654 12.4793 14.6817 12.557 14.7146 12.6296C14.7476 12.7022 14.7965 12.7683 14.8585 12.8241C14.9205 12.8798 14.9944 12.924 15.076 12.9542C15.1575 12.9844 15.2449 13 15.3333 13C15.4216 13 15.5091 12.9844 15.5906 12.9542C15.6721 12.924 15.746 12.8798 15.808 12.8241C15.8701 12.7683 15.919 12.7022 15.9519 12.6296C15.9849 12.557 16.0012 12.4793 15.9999 12.4011V10.039V6.4958C15.9999 5.84326 15.4033 5.31474 14.6666 5.31474C13.93 5.31474 13.3333 5.84326 13.3333 6.4958V8.8579H2.66671V6.4958C2.66671 5.84326 2.07005 5.31474 1.33339 5.31474Z" fill="#585858"/>
</svg>
