<svg width="21" height="18" viewBox="0 0 21 18" fill="none" xmlns="http://www.w3.org/2000/svg">
<path d="M5.25327 0.227173C3.37298 0.227173 1.84849 1.61476 1.84849 3.32619V5.65046C3.72878 5.65046 5.25327 7.03805 5.25327 8.74948V10.299H15.4676V8.74948C15.4676 7.03805 16.9921 5.65046 18.8724 5.65046V3.32619C18.8724 1.61476 17.3479 0.227173 15.4676 0.227173H5.25327ZM1.84849 7.19997C0.907916 7.19997 0.146096 7.89338 0.146096 8.74948V15.7223V16.497C0.144501 16.5997 0.16534 16.7016 0.2074 16.7969C0.249461 16.8922 0.311905 16.9789 0.391105 17.052C0.470304 17.1251 0.564678 17.1832 0.668743 17.2228C0.772807 17.2624 0.884487 17.2828 0.997292 17.2828C1.1101 17.2828 1.22178 17.2624 1.32584 17.2228C1.42991 17.1832 1.52428 17.1251 1.60348 17.052C1.68268 16.9789 1.74512 16.8922 1.78718 16.7969C1.82924 16.7016 1.85008 16.5997 1.84849 16.497V15.7223H18.8724V16.497C18.8708 16.5997 18.8916 16.7016 18.9337 16.7969C18.9758 16.8922 19.0382 16.9789 19.1174 17.052C19.1966 17.1251 19.291 17.1832 19.395 17.2228C19.4991 17.2624 19.6108 17.2828 19.7236 17.2828C19.8364 17.2828 19.9481 17.2624 20.0521 17.2228C20.1562 17.1832 20.2506 17.1251 20.3298 17.052C20.409 16.9789 20.4714 16.8922 20.5135 16.7969C20.5555 16.7016 20.5764 16.5997 20.5748 16.497V13.398V8.74948C20.5748 7.89338 19.813 7.19997 18.8724 7.19997C17.9318 7.19997 17.17 7.89338 17.17 8.74948V11.8485H3.55088V8.74948C3.55088 7.89338 2.78906 7.19997 1.84849 7.19997Z" fill="#D22424"/>
</svg>
