<svg width="20" height="20" viewBox="0 0 20 20" fill="none" xmlns="http://www.w3.org/2000/svg">
<path d="M7.16094 18.7821V15.7152C7.16093 14.9381 7.79288 14.3067 8.57565 14.3018H11.4498C12.2361 14.3018 12.8735 14.9346 12.8735 15.7152V18.7732C12.8735 19.4473 13.4212 19.9951 14.1002 20H16.061C16.9768 20.0023 17.856 19.6428 18.5044 19.0007C19.1528 18.3586 19.5172 17.4868 19.5172 16.5775V7.86585C19.5172 7.13139 19.1893 6.43471 18.6218 5.9635L11.9602 0.674268C10.7957 -0.250877 9.13258 -0.220992 8.0026 0.745384L1.48422 5.9635C0.889953 6.42082 0.534764 7.11956 0.517212 7.86585V16.5686C0.517212 18.4637 2.06459 20 3.97339 20H5.8895C6.21638 20.0023 6.5307 19.8751 6.76268 19.6464C6.99467 19.4178 7.12514 19.1067 7.12513 18.7821H7.16094Z" fill="#D22424"/>
</svg>
