<svg width="27" height="26" viewBox="0 0 27 26" fill="none" xmlns="http://www.w3.org/2000/svg">
<path d="M20.2811 11.541C20.2811 16.172 16.5521 19.9154 11.9653 19.9154C7.37846 19.9154 3.64944 16.172 3.64944 11.541C3.64944 6.9101 7.37846 3.16669 11.9653 3.16669C16.5521 3.16669 20.2811 6.9101 20.2811 11.541Z" stroke="#303030" stroke-width="2"/>
<path d="M22.8803 23.7849C22.5184 23.7732 22.1743 23.6243 21.9169 23.3681L19.7108 20.7894C19.2378 20.3568 19.1991 19.6217 19.6241 19.1414C19.823 18.9401 20.0934 18.8269 20.3755 18.8269C20.6576 18.8269 20.928 18.9401 21.1269 19.1414L23.9015 21.3613C24.3011 21.7704 24.4244 22.3777 24.2163 22.9117C24.0082 23.4457 23.5075 23.8068 22.9381 23.8334L22.8803 23.7849Z" fill="#6D6D6D"/>
</svg>
