<svg width="31" height="28" viewBox="0 0 31 28" fill="none" xmlns="http://www.w3.org/2000/svg">
<path d="M24.5671 8.87228C25.1335 9.87382 26.4046 10.2266 27.4061 9.66017L29.4572 13.287C30.0236 14.2886 29.6709 15.5596 28.6693 16.126L10.535 26.3814C9.53345 26.9478 8.26242 26.5951 7.69602 25.5936L5.64493 21.9667C6.64648 21.4003 6.99922 20.1293 6.43282 19.1277C5.86642 18.1262 4.59539 17.7734 3.59384 18.3398L1.54276 14.713C0.976357 13.7114 1.3291 12.4404 2.33064 11.874L20.465 1.61855C21.4665 1.05215 22.7375 1.40489 23.3039 2.40644L25.355 6.0333C24.3535 6.5997 24.0007 7.87074 24.5671 8.87228ZM20.5317 5.96872C20.2485 5.46795 19.613 5.29158 19.1122 5.57478L6.41818 12.7536C5.91741 13.0368 5.74104 13.6723 6.02424 14.1731L10.4683 22.0313C10.7515 22.5321 11.387 22.7084 11.8878 22.4252L24.5818 15.2464C25.0826 14.9632 25.2589 14.3277 24.9757 13.8269L20.5317 5.96872Z" fill="#303030"/>
<path d="M19.4937 6.95467L7.40412 13.7916L11.5063 21.0454L23.5958 14.2084L19.4937 6.95467Z" fill="#6D6D6D"/>
</svg>
