<svg width="25" height="21" viewBox="0 0 25 21" fill="none" xmlns="http://www.w3.org/2000/svg">
<path d="M22.4302 5.40803C22.446 5.6301 22.446 5.85222 22.446 6.07429C22.446 12.8477 17.2906 20.6523 7.86802 20.6523C4.96509 20.6523 2.26841 19.8115 0 18.3522C0.412451 18.3998 0.808984 18.4156 1.2373 18.4156C3.63257 18.4156 5.83755 17.6067 7.59834 16.2266C5.3458 16.179 3.45811 14.7037 2.80771 12.6733C3.125 12.7208 3.44224 12.7526 3.77539 12.7526C4.2354 12.7526 4.69546 12.6891 5.12373 12.5781C2.77603 12.1022 1.01519 10.04 1.01519 7.54954V7.48611C1.69727 7.86682 2.49048 8.10476 3.33115 8.13645C1.95107 7.21638 1.04692 5.64597 1.04692 3.86931C1.04692 2.91755 1.30068 2.04509 1.74487 1.28367C4.26709 4.3928 8.05835 6.42322 12.3096 6.64534C12.2303 6.26462 12.1827 5.86809 12.1827 5.47151C12.1827 2.64788 14.4669 0.347778 17.3064 0.347778C18.7816 0.347778 20.1141 0.966431 21.05 1.9658C22.208 1.74373 23.3184 1.31541 24.302 0.728491C23.9212 1.91824 23.1122 2.9176 22.0494 3.55208C23.0805 3.44109 24.0799 3.15549 24.9999 2.75896C24.302 3.77415 23.4295 4.6783 22.4302 5.40803Z" fill="#363636"/>
</svg>
